<svg width="50" height="50" viewBox="0 0 50 50" fill="none" xmlns="http://www.w3.org/2000/svg">
<path fill-rule="evenodd" clip-rule="evenodd" d="M0 0H50V50H0V0Z" fill="url(#paint0_radial_2895_1175)"/>
<path fill-rule="evenodd" clip-rule="evenodd" d="M31.8141 18.1825C28.0537 21.9477 21.9544 21.953 18.1911 18.1943C21.9515 14.4292 28.0508 14.4239 31.8141 18.1825ZM18.1858 4.57126C21.9492 8.32991 21.9515 14.4292 18.1911 18.1943C14.4277 14.4357 14.4254 8.33643 18.1858 4.57126ZM31.8089 4.55947C28.0485 8.32463 21.9492 8.32991 18.1858 4.57126C21.9463 0.806093 28.0456 0.800813 31.8089 4.55947ZM31.8089 4.55947C35.5723 8.31812 35.5746 14.4174 31.8141 18.1825C28.0508 14.4239 28.0485 8.32463 31.8089 4.55947Z" fill="white"/>
<path fill-rule="evenodd" clip-rule="evenodd" d="M45.4372 31.8057C41.6768 35.5708 35.5775 35.5761 31.8141 31.8174C35.5746 28.0523 41.6739 28.047 45.4372 31.8057ZM31.8089 18.1944C35.5723 21.953 35.5746 28.0523 31.8141 31.8174C28.0508 28.0588 28.0484 21.9595 31.8089 18.1944ZM45.432 18.1826C41.6715 21.9477 35.5723 21.953 31.8089 18.1944C35.5694 14.4292 41.6686 14.4239 45.432 18.1826ZM45.432 18.1826C49.1953 21.9412 49.1977 28.0405 45.4372 31.8057C41.6739 28.047 41.6715 21.9477 45.432 18.1826Z" fill="white"/>
<path fill-rule="evenodd" clip-rule="evenodd" d="M18.1911 31.8057C14.4306 35.5708 8.33134 35.5761 4.56799 31.8175C8.32845 28.0523 14.4277 28.047 18.1911 31.8057ZM4.56276 18.1944C8.32612 21.953 8.32845 28.0523 4.56799 31.8175C0.804635 28.0588 0.802296 21.9595 4.56276 18.1944ZM18.1858 18.1826C14.4254 21.9478 8.32612 21.953 4.56276 18.1944C8.32323 14.4292 14.4225 14.4239 18.1858 18.1826ZM18.1858 18.1826C21.9492 21.9412 21.9515 28.0405 18.1911 31.8057C14.4277 28.047 14.4254 21.9478 18.1858 18.1826Z" fill="white"/>
<path fill-rule="evenodd" clip-rule="evenodd" d="M31.8141 45.4287C28.0537 49.1939 21.9544 49.1992 18.191 45.4405C21.9515 41.6753 28.0508 41.6701 31.8141 45.4287ZM18.1858 31.8174C21.9492 35.5761 21.9515 41.6753 18.191 45.4405C14.4277 41.6819 14.4254 35.5826 18.1858 31.8174ZM31.8089 31.8056C28.0484 35.5708 21.9492 35.5761 18.1858 31.8174C21.9463 28.0523 28.0455 28.047 31.8089 31.8056ZM31.8089 31.8056C35.5723 35.5643 35.5746 41.6636 31.8141 45.4287C28.0508 41.6701 28.0484 35.5708 31.8089 31.8056Z" fill="white"/>
<defs>
<radialGradient id="paint0_radial_2895_1175" cx="0" cy="0" r="1" gradientUnits="userSpaceOnUse" gradientTransform="translate(25 25) scale(35.3553)">
<stop stop-color="#FFCDFA"/>
<stop offset="0.08" stop-color="#FFCDFA"/>
<stop offset="1" stop-color="#AA9DFF"/>
</radialGradient>
</defs>
</svg>
